<svg xmlns="http://www.w3.org/2000/svg" x="0px" y="0px"
	 viewBox="0 0 511.999 511.999" enable-background="new 0 0 511.999 511.999">
<g>
	<path style="fill:#E6E6E6;" d="M85.156,410.132C65.867,390.844,50.675,370.447,40.5,351.55l-21.709,21.709
		c-8.145,8.145,8.36,37.86,36.864,66.374c28.514,28.504,58.228,45.009,66.374,36.864l21.709-21.709
		C124.841,444.613,104.444,429.42,85.156,410.132L85.156,410.132z"/>
	<path style="fill:#2485BB;" d="M395.128,511.999c-35.924,0-65.164-29.231-65.164-65.164c0-15.397-12.53-27.927-27.927-27.927
		c-20.536,0-37.236-16.7-37.236-37.236c0-5.139,4.161-9.309,9.309-9.309s9.309,4.171,9.309,9.309
		c0,10.268,8.35,18.618,18.618,18.618c25.665,0,46.545,20.88,46.545,46.545s20.88,46.545,46.545,46.545s46.545-20.88,46.545-46.545
		s-20.88-46.545-46.545-46.545c-5.148,0-9.309-4.171-9.309-9.309c0-5.139,4.161-9.309,9.309-9.309
		c35.924,0,65.164,29.231,65.164,65.164S431.052,511.999,395.128,511.999"/>
	<path style="fill:#439FDE;" d="M210.516,461.751l265.467-265.467c-20.359,20.359-76.483-2.746-125.356-51.619
		S278.64,39.667,299.008,19.299L33.541,284.776c-20.368,20.359,2.746,76.484,51.619,125.356
		C134.023,459.005,190.157,482.11,210.516,461.751"/>
	<path style="fill:#CDCDCD;" d="M490.733,107.791c-12.214,12.214-45.233-0.987-73.737-29.501
		c-28.514-28.504-41.714-61.524-29.5-73.737s45.233,0.987,73.737,29.501C489.747,62.558,502.947,95.578,490.733,107.791"/>
	<path style="fill:#E6E6E6;" d="M416.992,78.295c-28.504-28.504-41.714-61.524-29.501-73.737l-44.237,44.237
		c-8.145,8.145,8.36,37.86,36.864,66.374c28.514,28.504,58.228,45.009,66.374,36.864l44.237-44.237
		C478.516,120.009,445.497,106.8,416.992,78.295"/>
	<g>
		<path style="fill:#2485BB;" d="M469.021,129.505l-22.528,22.528c-8.145,8.145-37.86-8.36-66.374-36.864
			c-28.504-28.514-45.009-58.228-36.864-66.374l22.528-22.528c-28.998-15.602-54.449-19.288-66.774-6.963
			c-20.368,20.359,2.746,76.483,51.619,125.356s104.997,71.987,125.356,51.619C488.309,183.954,484.623,158.503,469.021,129.505"/>
		<path style="fill:#2485BB;" d="M185.878,132.43l-13.675,13.675l126.064,224.34l8.118-4.561l6.833-6.833L185.878,132.43z"/>
		<path style="fill:#2485BB;" d="M458.391,213.877l-267.85-63.525l-4.291,18.116l256.67,60.881L458.391,213.877z"/>
		<path style="fill:#2485BB;" d="M372.252,164.202c-7.27-5.958-14.531-12.437-21.625-19.54c-2.532-2.532-4.952-5.092-7.345-7.661
			l-127.265-34.704l-15.165,15.155L372.252,164.202z"/>
		<path style="fill:#2485BB;" d="M227.664,216.785l-4.803,17.994l169.37,45.252l15.211-15.211L227.664,216.785z"/>
		<path style="fill:#2485BB;" d="M264.282,283.085l-4.292,18.116l89.823,21.253l15.472-15.472L264.282,283.085z"/>
		<path style="fill:#2485BB;" d="M211.455,346.176l16.561-8.509l-83.931-163.44l-13.833,13.824L211.455,346.176z"/>
		<path style="fill:#2485BB;" d="M131.673,323.999l16.691-8.257l-48.24-97.559l-13.898,13.898L131.673,323.999z"/>
		<path style="fill:#2485BB;" d="M298.327,373.94l15.016-15.016L39.525,278.792l-5.986,5.976c-2.709,2.709-4.599,6.097-5.809,9.97
			L298.327,373.94z"/>
		<path style="fill:#2485BB;" d="M247.339,424.928l15.053-15.053L37.363,345.577c3.677,7.512,8.294,15.323,13.601,23.245
			L247.339,424.928z"/>
	</g>
</g>
</svg>
